REM DIRINDEX 1\2,1\3,1\4,1\5
REM DIRNAME cjc156,folder01,folder02,folder03,folder04
TITLE ""
FILE "CD1Track02.mp3" MP3
  TRACK 01 AUDIO
    TITLE "5:cjc156_0002"
    INDEX 01 00:00:00
  TRACK 02 AUDIO
    TITLE "0:"
    INDEX 01 00:01:26
  TRACK 03 AUDIO
    TITLE "2:cjc156_0003"
    INDEX 01 00:02:40
  TRACK 04 AUDIO
    TITLE "3:cjc156_0004"
    INDEX 01 00:03:72
  TRACK 05 AUDIO
    TITLE "2:cjc156_0005"
    INDEX 01 00:05:34
  TRACK 06 AUDIO
    TITLE "3:cjc156_0006"
    INDEX 01 00:07:52
  TRACK 07 AUDIO
    TITLE "2:cjc156_0007"
    INDEX 01 00:10:06
  TRACK 08 AUDIO
    TITLE "3:cjc156_0008"
    INDEX 01 00:12:61
  TRACK 09 AUDIO
    TITLE "2:cjc156_0009"
    INDEX 01 00:15:52
  TRACK 10 AUDIO
    TITLE "3:cjc156_0010"
    INDEX 01 00:17:37
  TRACK 11 AUDIO
    TITLE "2:cjc156_0011"
    INDEX 01 00:19:30
  TRACK 12 AUDIO
    TITLE "3:cjc156_0012"
    INDEX 01 00:20:69
  TRACK 13 AUDIO
    TITLE "2:cjc156_0013"
    INDEX 01 00:22:46
  TRACK 14 AUDIO
    TITLE "3:cjc156_0014"
    INDEX 01 00:25:35
  TRACK 15 AUDIO
    TITLE "2:cjc156_0015"
    INDEX 01 00:28:31
  TRACK 16 AUDIO
    TITLE "3:cjc156_0016"
    INDEX 01 00:29:72
  TRACK 17 AUDIO
    TITLE "2:cjc156_0017"
    INDEX 01 00:31:43
  TRACK 18 AUDIO
    TITLE "3:cjc156_0018"
    INDEX 01 00:33:46
  TRACK 19 AUDIO
    TITLE "2:cjc156_0019"
    INDEX 01 00:35:53
  TRACK 20 AUDIO
    TITLE "3:cjc156_0020"
    INDEX 01 00:37:67
  TRACK 21 AUDIO
    TITLE "2:cjc156_0021"
    INDEX 01 00:40:09
  TRACK 22 AUDIO
    TITLE "3:cjc156_0022"
    INDEX 01 00:42:18
  TRACK 23 AUDIO
    TITLE "2:cjc156_0023"
    INDEX 01 00:44:26
  TRACK 24 AUDIO
    TITLE "3:cjc156_0024"
    INDEX 01 00:46:11
  TRACK 25 AUDIO
    TITLE "2:cjc156_0025"
    INDEX 01 00:47:72
  TRACK 26 AUDIO
    TITLE "3:cjc156_0026"
    INDEX 01 00:50:01
  TRACK 27 AUDIO
    TITLE "2:cjc156_0027"
    INDEX 01 00:52:16
  TRACK 28 AUDIO
    TITLE "3:cjc156_0028"
    INDEX 01 00:54:50
  TRACK 29 AUDIO
    TITLE "2:cjc156_0029"
    INDEX 01 00:57:15
  TRACK 30 AUDIO
    TITLE "3:cjc156_0030"
    INDEX 01 00:58:44
  TRACK 31 AUDIO
    TITLE "2:cjc156_0031"
    INDEX 01 01:00:04
  TRACK 32 AUDIO
    TITLE "3:cjc156_0032"
    INDEX 01 01:02:12
  TRACK 33 AUDIO
    TITLE "2:cjc156_0033"
    INDEX 01 01:04:29
  TRACK 34 AUDIO
    TITLE "3:cjc156_0034"
    INDEX 01 01:05:24
  TRACK 35 AUDIO
    TITLE "2:cjc156_0035"
    INDEX 01 01:06:24
  TRACK 36 AUDIO
    TITLE "3:cjc156_0036"
    INDEX 01 01:08:29
  TRACK 37 AUDIO
    TITLE "2:cjc156_0037"
    INDEX 01 01:10:41
  TRACK 38 AUDIO
    TITLE "3:cjc156_0038"
    INDEX 01 01:12:15
  TRACK 39 AUDIO
    TITLE "2:cjc156_0039"
    INDEX 01 01:13:67
  TRACK 40 AUDIO
    TITLE "3:cjc156_0040"
    INDEX 01 01:15:52
  TRACK 41 AUDIO
    TITLE "2:cjc156_0041"
    INDEX 01 01:17:43
  TRACK 42 AUDIO
    TITLE "3:cjc156_0042"
    INDEX 01 01:19:21
  TRACK 43 AUDIO
    TITLE "2:cjc156_0043"
    INDEX 01 01:21:04
  TRACK 44 AUDIO
    TITLE "3:cjc156_0044"
    INDEX 01 01:23:34
  TRACK 45 AUDIO
    TITLE "2:cjc156_0045"
    INDEX 01 01:25:68
  TRACK 46 AUDIO
    TITLE "3:cjc156_0046"
    INDEX 01 01:26:58
  TRACK 47 AUDIO
    TITLE "2:cjc156_0047"
    INDEX 01 01:27:51
  TRACK 48 AUDIO
    TITLE "3:cjc156_0048"
    INDEX 01 01:30:09
  TRACK 49 AUDIO
    TITLE "2:cjc156_0049"
    INDEX 01 01:32:43
  TRACK 50 AUDIO
    TITLE "3:cjc156_0050"
    INDEX 01 01:35:27
  TRACK 51 AUDIO
    TITLE "2:cjc156_0051"
    INDEX 01 01:38:14
  TRACK 52 AUDIO
    TITLE "3:cjc156_0052"
    INDEX 01 01:41:48
  TRACK 53 AUDIO
    TITLE "2:cjc156_0053"
    INDEX 01 01:45:14
  TRACK 54 AUDIO
    TITLE "3:cjc156_0054"
    INDEX 01 01:46:53
  TRACK 55 AUDIO
    TITLE "2:cjc156_0055"
    INDEX 01 01:48:22
  TRACK 56 AUDIO
    TITLE "3:cjc156_0056"
    INDEX 01 01:50:47
  TRACK 57 AUDIO
    TITLE "2:cjc156_0057"
    INDEX 01 01:52:73
  TRACK 58 AUDIO
    TITLE "3:cjc156_0058"
    INDEX 01 01:55:22
  TRACK 59 AUDIO
    TITLE "2:cjc156_0059"
    INDEX 01 01:57:51
  TRACK 60 AUDIO
    TITLE "3:cjc156_0060"
    INDEX 01 01:59:61
  TRACK 61 AUDIO
    TITLE "2:cjc156_0061"
    INDEX 01 02:02:05
  TRACK 62 AUDIO
    TITLE "3:cjc156_0062"
    INDEX 01 02:03:71
  TRACK 63 AUDIO
    TITLE "2:cjc156_0063"
    INDEX 01 02:05:68
  TRACK 64 AUDIO
    TITLE "3:cjc156_0064"
    INDEX 01 02:07:27
  TRACK 65 AUDIO
    TITLE "2:cjc156_0065"
    INDEX 01 02:08:60
  TRACK 66 AUDIO
    TITLE "3:cjc156_0066"
    INDEX 01 02:10:42
  TRACK 67 AUDIO
    TITLE "2:cjc156_0067"
    INDEX 01 02:12:17
  TRACK 68 AUDIO
    TITLE "3:cjc156_0068"
    INDEX 01 02:14:12
  TRACK 69 AUDIO
    TITLE "2:cjc156_0069"
    INDEX 01 02:16:13
  TRACK 70 AUDIO
    TITLE "3:cjc156_0070"
    INDEX 01 02:17:34
  TRACK 71 AUDIO
    TITLE "2:cjc156_0071"
    INDEX 01 02:18:65
  TRACK 72 AUDIO
    TITLE "3:cjc156_0072"
    INDEX 01 02:20:60
  TRACK 73 AUDIO
    TITLE "2:cjc156_0073"
    INDEX 01 02:22:58
  TRACK 74 AUDIO
    TITLE "3:cjc156_0074"
    INDEX 01 02:25:14
  TRACK 75 AUDIO
    TITLE "2:cjc156_0075"
    INDEX 01 02:27:52
  TRACK 76 AUDIO
    TITLE "3:cjc156_0076"
    INDEX 01 02:30:17
  TRACK 77 AUDIO
    TITLE "2:cjc156_0077"
    INDEX 01 02:32:69
  TRACK 78 AUDIO
    TITLE "3:cjc156_0078"
    INDEX 01 02:35:06
  TRACK 79 AUDIO
    TITLE "2:cjc156_0079"
    INDEX 01 02:37:33
  TRACK 80 AUDIO
    TITLE "3:cjc156_0080"
    INDEX 01 02:39:39
  TRACK 81 AUDIO
    TITLE "2:cjc156_0081"
    INDEX 01 02:41:52
  TRACK 82 AUDIO
    TITLE "3:cjc156_0082"
    INDEX 01 02:43:63
  TRACK 83 AUDIO
    TITLE "2:cjc156_0083"
    INDEX 01 02:46:02
  TRACK 84 AUDIO
    TITLE "3:cjc156_0084"
    INDEX 01 02:46:65
  TRACK 85 AUDIO
    TITLE "2:cjc156_0085"
    INDEX 01 02:47:62
  TRACK 86 AUDIO
    TITLE "3:cjc156_0086"
    INDEX 01 02:49:28
  TRACK 87 AUDIO
    TITLE "2:cjc156_0087"
    INDEX 01 02:51:01
  TRACK 88 AUDIO
    TITLE "3:cjc156_0088"
    INDEX 01 02:51:66
  TRACK 89 AUDIO
    TITLE "2:cjc156_0089"
    INDEX 01 02:52:60
  TRACK 90 AUDIO
    TITLE "3:cjc156_0090"
    INDEX 01 02:55:17
  TRACK 91 AUDIO
    TITLE "2:cjc156_0091"
    INDEX 01 02:57:53
  TRACK 92 AUDIO
    TITLE "3:cjc156_0092"
    INDEX 01 02:59:42
  TRACK 93 AUDIO
    TITLE "2:cjc156_0093"
    INDEX 01 03:01:39
  TRACK 94 AUDIO
    TITLE "3:cjc156_0094"
    INDEX 01 03:03:44
  TRACK 95 AUDIO
    TITLE "2:cjc156_0095"
    INDEX 01 03:05:52
  TRACK 96 AUDIO
    TITLE "3:cjc156_0096"
    INDEX 01 03:07:04
  TRACK 97 AUDIO
    TITLE "2:cjc156_0097"
    INDEX 01 03:08:39
  TRACK 98 AUDIO
    TITLE "3:cjc156_0098"
    INDEX 01 03:10:54
  TRACK 99 AUDIO
    TITLE "2:cjc156_0099"
    INDEX 01 03:12:74
  TRACK 100 AUDIO
    TITLE "3:cjc156_0100"
    INDEX 01 03:15:00
  TRACK 101 AUDIO
    TITLE "2:cjc156_0101"
    INDEX 01 03:17:14
  TRACK 102 AUDIO
    TITLE "3:cjc156_0102"
    INDEX 01 03:18:28
  TRACK 103 AUDIO
    TITLE "2:cjc156_0103"
    INDEX 01 03:19:49
  TRACK 104 AUDIO
    TITLE "3:cjc156_0104"
    INDEX 01 03:21:67
  TRACK 105 AUDIO
    TITLE "2:cjc156_0105"
    INDEX 01 03:24:20
  TRACK 106 AUDIO
    TITLE "3:cjc156_0106"
    INDEX 01 03:27:19
  TRACK 107 AUDIO
    TITLE "2:cjc156_0107"
    INDEX 01 03:30:31
  TRACK 108 AUDIO
    TITLE "3:cjc156_0108"
    INDEX 01 03:32:16
  TRACK 109 AUDIO
    TITLE "2:cjc156_0109"
    INDEX 01 03:34:11
  TRACK 110 AUDIO
    TITLE "3:cjc156_0110"
    INDEX 01 03:35:67
  TRACK 111 AUDIO
    TITLE "2:cjc156_0111"
    INDEX 01 03:37:54
  TRACK 112 AUDIO
    TITLE "3:cjc156_0112"
    INDEX 01 03:39:06
  TRACK 113 AUDIO
    TITLE "2:cjc156_0113"
    INDEX 01 03:40:43
  TRACK 114 AUDIO
    TITLE "3:cjc156_0114"
    INDEX 01 03:43:02
  TRACK 115 AUDIO
    TITLE "2:cjc156_0115"
    INDEX 01 03:45:46
  TRACK 116 AUDIO
    TITLE "3:cjc156_0116"
    INDEX 01 03:47:45
  TRACK 117 AUDIO
    TITLE "2:cjc156_0117"
    INDEX 01 03:49:46
  TRACK 118 AUDIO
    TITLE "3:cjc156_0118"
    INDEX 01 03:50:69
  TRACK 119 AUDIO
    TITLE "2:cjc156_0119"
    INDEX 01 03:52:23
  TRACK 120 AUDIO
    TITLE "3:cjc156_0120"
    INDEX 01 03:53:14
  TRACK 121 AUDIO
    TITLE "2:cjc156_0121"
    INDEX 01 03:54:06
  TRACK 122 AUDIO
    TITLE "3:cjc156_0122"
    INDEX 01 03:55:60
  TRACK 123 AUDIO
    TITLE "2:cjc156_0123"
    INDEX 01 03:57:43
  TRACK 124 AUDIO
    TITLE "3:cjc156_0124"
    INDEX 01 03:59:48
  TRACK 125 AUDIO
    TITLE "2:cjc156_0125"
    INDEX 01 04:01:59
  TRACK 126 AUDIO
    TITLE "3:cjc156_0126"
    INDEX 01 04:03:18
  TRACK 127 AUDIO
    TITLE "2:cjc156_0127"
    INDEX 01 04:04:59
  TRACK 128 AUDIO
    TITLE "3:cjc156_0128"
    INDEX 01 04:07:06
  TRACK 129 AUDIO
    TITLE "2:cjc156_0129"
    INDEX 01 04:09:39
  TRACK 130 AUDIO
    TITLE "3:cjc156_0130"
    INDEX 01 04:11:71
  TRACK 131 AUDIO
    TITLE "2:cjc156_0131"
    INDEX 01 04:14:42
  TRACK 132 AUDIO
    TITLE "3:cjc156_0132"
    INDEX 01 04:16:15
  TRACK 133 AUDIO
    TITLE "2:cjc156_0133"
    INDEX 01 04:18:00
  TRACK 134 AUDIO
    TITLE "3:cjc156_0134"
    INDEX 01 04:20:23
  TRACK 135 AUDIO
    TITLE "2:cjc156_0135"
    INDEX 01 04:22:55
  TRACK 136 AUDIO
    TITLE "3:cjc156_0136"
    INDEX 01 04:24:60
  TRACK 137 AUDIO
    TITLE "2:cjc156_0137"
    INDEX 01 04:26:74
  TRACK 138 AUDIO
    TITLE "3:cjc156_0138"
    INDEX 01 04:28:38
  TRACK 139 AUDIO
    TITLE "2:cjc156_0139"
    INDEX 01 04:30:06
  TRACK 140 AUDIO
    TITLE "3:cjc156_0140"
    INDEX 01 04:32:08
  TRACK 141 AUDIO
    TITLE "2:cjc156_0141"
    INDEX 01 04:34:21
  TRACK 142 AUDIO
    TITLE "3:cjc156_0142"
    INDEX 01 04:35:46
  TRACK 143 AUDIO
    TITLE "2:cjc156_0143"
    INDEX 01 04:37:04
  TRACK 144 AUDIO
    TITLE "3:cjc156_0144"
    INDEX 01 04:38:38
  TRACK 145 AUDIO
    TITLE "2:cjc156_0145"
    INDEX 01 04:40:12
  TRACK 146 AUDIO
    TITLE "3:cjc156_0146"
    INDEX 01 04:43:71
  TRACK 147 AUDIO
    TITLE "2:cjc156_0147"
    INDEX 01 04:47:59
  TRACK 148 AUDIO
    TITLE "3:cjc156_0148"
    INDEX 01 04:48:68
  TRACK 149 AUDIO
    TITLE "2:cjc156_0149"
    INDEX 01 04:50:10
  TRACK 150 AUDIO
    TITLE "3:cjc156_0150"
    INDEX 01 04:52:21
  TRACK 151 AUDIO
    TITLE "2:cjc156_0151"
    INDEX 01 04:54:41
  TRACK 152 AUDIO
    TITLE "3:cjc156_0152"
    INDEX 01 04:56:07
  TRACK 153 AUDIO
    TITLE "2:cjc156_0153"
    INDEX 01 04:57:59
  TRACK 154 AUDIO
    TITLE "3:cjc156_0154"
    INDEX 01 04:59:39
  TRACK 155 AUDIO
    TITLE "2:cjc156_0155"
    INDEX 01 05:01:18
  TRACK 156 AUDIO
    TITLE "3:cjc156_0156"
    INDEX 01 05:02:47
  TRACK 157 AUDIO
    TITLE "2:cjc156_0157"
    INDEX 01 05:04:00
  TRACK 158 AUDIO
    TITLE "3:cjc156_0158"
    INDEX 01 05:05:45
  TRACK 159 AUDIO
    TITLE "2:cjc156_0159"
    INDEX 01 05:07:16
  TRACK 160 AUDIO
    TITLE "3:cjc156_0160"
    INDEX 01 05:09:02
  TRACK 161 AUDIO
    TITLE "2:cjc156_0161"
    INDEX 01 05:10:68
  TRACK 162 AUDIO
    TITLE "3:cjc156_0162"
    INDEX 01 05:12:72
  TRACK 163 AUDIO
    TITLE "2:cjc156_0163"
    INDEX 01 05:15:10
  TRACK 164 AUDIO
    TITLE "3:cjc156_0164"
    INDEX 01 05:17:36
  TRACK 165 AUDIO
    TITLE "2:cjc156_0165"
    INDEX 01 05:19:73
  TRACK 166 AUDIO
    TITLE "3:cjc156_0166"
    INDEX 01 05:21:50
  TRACK 167 AUDIO
    TITLE "2:cjc156_0167"
    INDEX 01 05:23:35
  TRACK 168 AUDIO
    TITLE "3:cjc156_0168"
    INDEX 01 05:25:67
  TRACK 169 AUDIO
    TITLE "2:cjc156_0169"
    INDEX 01 05:28:32
  TRACK 170 AUDIO
    TITLE "3:cjc156_0170"
    INDEX 01 05:30:65
  TRACK 171 AUDIO
    TITLE "2:cjc156_0171"
    INDEX 01 05:33:33
  TRACK 172 AUDIO
    TITLE "3:cjc156_0172"
    INDEX 01 05:35:50
  TRACK 173 AUDIO
    TITLE "2:cjc156_0173"
    INDEX 01 05:38:03
  TRACK 174 AUDIO
    TITLE "3:cjc156_0174"
    INDEX 01 05:39:38
  TRACK 175 AUDIO
    TITLE "2:cjc156_0175"
    INDEX 01 05:41:06
  TRACK 176 AUDIO
    TITLE "3:cjc156_0176"
    INDEX 01 05:42:46
  TRACK 177 AUDIO
    TITLE "2:cjc156_0177"
    INDEX 01 05:44:24
  TRACK 178 AUDIO
    TITLE "3:cjc156_0178"
    INDEX 01 05:46:66
  TRACK 179 AUDIO
    TITLE "2:cjc156_0179"
    INDEX 01 05:49:34
  TRACK 180 AUDIO
    TITLE "3:cjc156_0180"
    INDEX 01 05:52:17
  TRACK 181 AUDIO
    TITLE "2:cjc156_0181"
    INDEX 01 05:55:10
  TRACK 182 AUDIO
    TITLE "3:cjc156_0182"
    INDEX 01 05:56:56
  TRACK 183 AUDIO
    TITLE "2:cjc156_0183"
    INDEX 01 05:58:41
  TRACK 184 AUDIO
    TITLE "3:cjc156_0184"
    INDEX 01 06:00:70
  TRACK 185 AUDIO
    TITLE "2:cjc156_0185"
    INDEX 01 06:03:25
  TRACK 186 AUDIO
    TITLE "3:cjc156_0186"
    INDEX 01 06:04:58
  TRACK 187 AUDIO
    TITLE "2:cjc156_0187"
    INDEX 01 06:06:11
  TRACK 188 AUDIO
    TITLE "3:cjc156_0188"
    INDEX 01 06:07:44
  TRACK 189 AUDIO
    TITLE "2:cjc156_0189"
    INDEX 01 06:09:08
  TRACK 190 AUDIO
    TITLE "3:cjc156_0190"
    INDEX 01 06:11:48
  TRACK 191 AUDIO
    TITLE "2:cjc156_0191"
    INDEX 01 06:14:25
  TRACK 192 AUDIO
    TITLE "3:cjc156_0192"
    INDEX 01 06:15:50
  TRACK 193 AUDIO
    TITLE "2:cjc156_0193"
    INDEX 01 06:17:03
  TRACK 194 AUDIO
    TITLE "3:cjc156_0194"
    INDEX 01 06:18:64
  TRACK 195 AUDIO
    TITLE "2:cjc156_0195"
    INDEX 01 06:20:59
  TRACK 196 AUDIO
    TITLE "3:cjc156_0196"
    INDEX 01 06:22:48
  TRACK 197 AUDIO
    TITLE "2:cjc156_0197"
    INDEX 01 06:24:47
  TRACK 198 AUDIO
    TITLE "3:cjc156_0198"
    INDEX 01 06:28:29
  TRACK 199 AUDIO
    TITLE "2:cjc156_0199"
    INDEX 01 06:32:17
  TRACK 200 AUDIO
    TITLE "3:cjc156_0200"
    INDEX 01 06:34:35
  TRACK 201 AUDIO
    TITLE "2:cjc156_0201"
    INDEX 01 06:36:61
  TRACK 202 AUDIO
    TITLE "3:cjc156_0202"
    INDEX 01 06:39:28
  TRACK 203 AUDIO
    TITLE "2:cjc156_0203"
    INDEX 01 06:42:03
  TRACK 204 AUDIO
    TITLE "3:cjc156_0204"
    INDEX 01 06:43:36
  TRACK 205 AUDIO
    TITLE "2:cjc156_0205"
    INDEX 01 06:45:06
  TRACK 206 AUDIO
    TITLE "3:cjc156_0206"
    INDEX 01 06:46:32
  TRACK 207 AUDIO
    TITLE "2:cjc156_0207"
    INDEX 01 06:47:63
  TRACK 208 AUDIO
    TITLE "3:cjc156_0208"
    INDEX 01 06:51:67
  TRACK 209 AUDIO
    TITLE "0:"
    INDEX 01 06:56:00
